<svg width="44" height="44" viewBox="0 0 44 44" fill="none" xmlns="http://www.w3.org/2000/svg">
<g clip-path="url(#clip0_10_96)">
<path d="M13.75 8.25C13.75 6.06196 14.6192 3.96354 16.1664 2.41637C17.7135 0.869194 19.812 0 22 0C24.188 0 26.2865 0.869194 27.8336 2.41637C29.3808 3.96354 30.25 6.06196 30.25 8.25C30.25 10.438 29.3808 12.5365 27.8336 14.0836C26.2865 15.6308 24.188 16.5 22 16.5C19.812 16.5 17.7135 15.6308 16.1664 14.0836C14.6192 12.5365 13.75 10.438 13.75 8.25ZM20.625 21.3125V44L16.4656 41.9203C14.6695 41.0266 12.7273 40.4594 10.725 40.2617L2.475 39.4367C1.07422 39.2906 0 38.1133 0 36.6953V19.25C0 17.7289 1.22891 16.5 2.75 16.5H5.35391C10.8195 16.5 16.1477 18.1844 20.625 21.3125ZM23.375 44V21.3125C27.8523 18.1844 33.1805 16.5 38.6461 16.5H41.25C42.7711 16.5 44 17.7289 44 19.25V36.6953C44 38.1047 42.9258 39.2906 41.525 39.4281L33.275 40.2531C31.2813 40.4508 29.3305 41.018 27.5344 41.9117L23.375 44Z" fill="white"/>
</g>
<defs>
<clipPath id="clip0_10_96">
<rect width="44" height="44" fill="white"/>
</clipPath>
</defs>
</svg>
