<svg width="32" height="22" viewBox="0 0 32 22" fill="none" xmlns="http://www.w3.org/2000/svg">
<g clip-path="url(#clip0_7_80)">
<path d="M21 11C21 12.3261 20.4732 13.5979 19.5355 14.5355C18.5979 15.4732 17.3261 16 16 16C14.6739 16 13.4021 15.4732 12.4645 14.5355C11.5268 13.5979 11 12.3261 11 11C11 9.67392 11.5268 8.40215 12.4645 7.46447C13.4021 6.52678 14.6739 6 16 6C17.3261 6 18.5979 6.52678 19.5355 7.46447C20.4732 8.40215 21 9.67392 21 11Z" fill="black"/>
<path d="M0 11C0 11 6 0 16 0C26 0 32 11 32 11C32 11 26 22 16 22C6 22 0 11 0 11ZM16 18C16.9193 18 17.8295 17.8189 18.6788 17.4672C19.5281 17.1154 20.2997 16.5998 20.9497 15.9497C21.5998 15.2997 22.1154 14.5281 22.4672 13.6788C22.8189 12.8295 23 11.9193 23 11C23 10.0807 22.8189 9.1705 22.4672 8.32122C22.1154 7.47194 21.5998 6.70026 20.9497 6.05025C20.2997 5.40024 19.5281 4.88463 18.6788 4.53284C17.8295 4.18106 16.9193 4 16 4C14.1435 4 12.363 4.7375 11.0503 6.05025C9.7375 7.36301 9 9.14348 9 11C9 12.8565 9.7375 14.637 11.0503 15.9497C12.363 17.2625 14.1435 18 16 18Z" fill="black"/>
</g>
<defs>
<clipPath id="clip0_7_80">
<rect width="32" height="22" fill="white"/>
</clipPath>
</defs>
</svg>
