<svg width="58" height="44" viewBox="0 0 58 44" fill="none" xmlns="http://www.w3.org/2000/svg">
<g clip-path="url(#clip0_1_467)">
<path d="M10.3571 12C9.80777 12 9.28089 12.2107 8.89242 12.5858C8.50395 12.9609 8.28571 13.4696 8.28571 14C8.28571 14.5304 8.50395 15.0391 8.89242 15.4142C9.28089 15.7893 9.80777 16 10.3571 16H39.3571C39.9065 16 40.4334 15.7893 40.8219 15.4142C41.2103 15.0391 41.4286 14.5304 41.4286 14C41.4286 13.4696 41.2103 12.9609 40.8219 12.5858C40.4334 12.2107 39.9065 12 39.3571 12H10.3571ZM10.3571 20C9.80777 20 9.28089 20.2107 8.89242 20.5858C8.50395 20.9609 8.28571 21.4696 8.28571 22V30C8.28571 30.5304 8.50395 31.0391 8.89242 31.4142C9.28089 31.7893 9.80777 32 10.3571 32H18.6429C19.1922 32 19.7191 31.7893 20.1076 31.4142C20.496 31.0391 20.7143 30.5304 20.7143 30V22C20.7143 21.4696 20.496 20.9609 20.1076 20.5858C19.7191 20.2107 19.1922 20 18.6429 20H10.3571ZM12.4286 28V24H16.5714V28H12.4286ZM26.9286 20C26.3792 20 25.8523 20.2107 25.4639 20.5858C25.0754 20.9609 24.8571 21.4696 24.8571 22C24.8571 22.5304 25.0754 23.0391 25.4639 23.4142C25.8523 23.7893 26.3792 24 26.9286 24H39.3571C39.9065 24 40.4334 23.7893 40.8219 23.4142C41.2103 23.0391 41.4286 22.5304 41.4286 22C41.4286 21.4696 41.2103 20.9609 40.8219 20.5858C40.4334 20.2107 39.9065 20 39.3571 20H26.9286ZM26.9286 28C26.3792 28 25.8523 28.2107 25.4639 28.5858C25.0754 28.9609 24.8571 29.4696 24.8571 30C24.8571 30.5304 25.0754 31.0391 25.4639 31.4142C25.8523 31.7893 26.3792 32 26.9286 32H39.3571C39.9065 32 40.4334 31.7893 40.8219 31.4142C41.2103 31.0391 41.4286 30.5304 41.4286 30C41.4286 29.4696 41.2103 28.9609 40.8219 28.5858C40.4334 28.2107 39.9065 28 39.3571 28H26.9286ZM0 8C0 5.87827 0.872957 3.84344 2.42683 2.34315C3.9807 0.842855 6.08821 0 8.28571 0L41.4286 0C43.6261 0 45.7336 0.842855 47.2875 2.34315C48.8413 3.84344 49.7143 5.87827 49.7143 8C51.9118 8 54.0193 8.84285 55.5732 10.3431C57.127 11.8434 58 13.8783 58 16V34C58 36.6522 56.9088 39.1957 54.9665 41.0711C53.0241 42.9464 50.3897 44 47.6429 44H10.3571C7.61026 44 4.97588 42.9464 3.03354 41.0711C1.0912 39.1957 0 36.6522 0 34L0 8ZM47.6429 34C47.0935 34 46.5666 33.7893 46.1781 33.4142C45.7897 33.0391 45.5714 32.5304 45.5714 32V8C45.5714 6.93913 45.1349 5.92172 44.358 5.17157C43.5811 4.42143 42.5273 4 41.4286 4H8.28571C7.18696 4 6.13321 4.42143 5.35627 5.17157C4.57934 5.92172 4.14286 6.93913 4.14286 8V34C4.14286 35.5913 4.79757 37.1174 5.96298 38.2426C7.12838 39.3679 8.70901 40 10.3571 40H47.6429C49.291 40 50.8716 39.3679 52.037 38.2426C53.2024 37.1174 53.8571 35.5913 53.8571 34V16C53.8571 14.9391 53.4207 13.9217 52.6437 13.1716C51.8668 12.4214 50.813 12 49.7143 12V32C49.7143 32.5304 49.496 33.0391 49.1076 33.4142C48.7191 33.7893 48.1922 34 47.6429 34Z" fill="white"/>
</g>
<defs>
<clipPath id="clip0_1_467">
<rect width="58" height="44" fill="white"/>
</clipPath>
</defs>
</svg>
