<svg width="58" height="44" viewBox="0 0 58 44" fill="none" xmlns="http://www.w3.org/2000/svg">
<path d="M55.9889 0.415372C56.6208 0.853866 57 1.57495 57 2.34475V35.0857C57 36.0601 56.3972 36.9273 55.4931 37.2684L39.1597 43.5047C38.6542 43.6996 38.1 43.7094 37.5944 43.534L19.7153 37.5705L4.15972 43.5145C3.44028 43.7873 2.63333 43.6899 2.00139 43.2514C1.36944 42.8129 1 42.0918 1 41.322V8.58111C1 7.60668 1.59306 6.73943 2.50694 6.39838L18.8403 0.162019C19.3458 -0.032867 19.9 -0.0426112 20.4056 0.132786L38.2847 6.09631L53.8403 0.152275C54.5597 -0.120566 55.3667 -0.0231225 55.9986 0.415372H55.9889ZM5.66667 10.1889V37.931L17.3333 33.4778V5.73577L5.66667 10.1889ZM36 38.0772V10.2669L22 5.5896V33.3999L36 38.0772ZM40.6667 37.931L52.3333 33.4778V5.73577L40.6667 10.1889V37.931Z" fill="white"/>
</svg>
