<svg width="36" height="28" viewBox="0 0 36 28" fill="none" xmlns="http://www.w3.org/2000/svg">
<path fill-rule="evenodd" clip-rule="evenodd" d="M0.381836 2.5454C0.381836 2.00532 0.596381 1.48736 0.978273 1.10547C1.36017 0.723578 1.87812 0.509033 2.4182 0.509033H26.8546C27.3946 0.509033 27.9126 0.723578 28.2945 1.10547C28.6764 1.48736 28.8909 2.00532 28.8909 2.5454C28.8909 3.08547 28.6764 3.60343 28.2945 3.98532C27.9126 4.36722 27.3946 4.58176 26.8546 4.58176H2.4182C1.87812 4.58176 1.36017 4.36722 0.978273 3.98532C0.596381 3.60343 0.381836 3.08547 0.381836 2.5454ZM0.381836 12.7272C0.381836 12.1871 0.596381 11.6692 0.978273 11.2873C1.36017 10.9054 1.87812 10.6909 2.4182 10.6909H26.8546C27.3946 10.6909 27.9126 10.9054 28.2945 11.2873C28.6764 11.6692 28.8909 12.1871 28.8909 12.7272C28.8909 13.2673 28.6764 13.7852 28.2945 14.1671C27.9126 14.549 27.3946 14.7636 26.8546 14.7636H2.4182C1.87812 14.7636 1.36017 14.549 0.978273 14.1671C0.596381 13.7852 0.381836 13.2673 0.381836 12.7272ZM12.6 22.909C12.6 22.369 12.8146 21.851 13.1965 21.4691C13.5783 21.0872 14.0963 20.8727 14.6364 20.8727H26.8546C27.3946 20.8727 27.9126 21.0872 28.2945 21.4691C28.6764 21.851 28.8909 22.369 28.8909 22.909C28.8909 23.4491 28.6764 23.9671 28.2945 24.349C27.9126 24.7309 27.3946 24.9454 26.8546 24.9454H14.6364C14.0963 24.9454 13.5783 24.7309 13.1965 24.349C12.8146 23.9671 12.6 23.4491 12.6 22.909Z" fill="white"/>
</svg>
