<svg width="16" height="17" viewBox="0 0 16 17" fill="none" xmlns="http://www.w3.org/2000/svg">
<path fill-rule="evenodd" clip-rule="evenodd" d="M12.4881 12.923C12.7284 12.6871 13.1181 12.6871 13.3584 12.923L15.8199 15.339C16.0603 15.5748 16.0603 15.9572 15.8199 16.1931C15.5796 16.429 15.19 16.429 14.9496 16.1931L12.4881 13.7772C12.2478 13.5413 12.2478 13.1589 12.4881 12.923Z" fill="#363C51"/>
<path fill-rule="evenodd" clip-rule="evenodd" d="M7.58974 1.87399C4.07778 1.87399 1.23077 4.66828 1.23077 8.11521C1.23077 11.5621 4.07778 14.3564 7.58974 14.3564C11.1017 14.3564 13.9487 11.5621 13.9487 8.11521C13.9487 4.66828 11.1017 1.87399 7.58974 1.87399ZM0 8.11521C0 4.00113 3.39804 0.666016 7.58974 0.666016C11.7814 0.666016 15.1795 4.00113 15.1795 8.11521C15.1795 12.2293 11.7814 15.5644 7.58974 15.5644C3.39804 15.5644 0 12.2293 0 8.11521Z" fill="#363C51"/>
</svg>
