<svg width="121" height="40" viewBox="0 0 121 40" fill="none" xmlns="http://www.w3.org/2000/svg">
<g clip-path="url(#clip0_31_19)">
<path d="M7.77 39.998C7.457 39.998 7.152 39.994 6.842 39.987C6.1993 39.9786 5.55815 39.9218 4.924 39.817C4.33161 39.7126 3.75845 39.519 3.224 39.243C2.6918 38.9683 2.20755 38.6093 1.79 38.18C1.36416 37.7533 1.01054 37.2602 0.743 36.72C0.47118 36.1737 0.283397 35.5894 0.186 34.987C0.0804034 34.3388 0.0232452 33.6837 0.015 33.027C0.009 32.805 0 32.07 0 32.07V7.915C0 7.915 0.01 7.192 0.015 6.98C0.023 6.324 0.08 5.67 0.185 5.022C0.282776 4.41796 0.470882 3.83207 0.743 3.284C1.00938 2.74401 1.36087 2.25038 1.784 1.822C2.206 1.392 2.692 1.031 3.224 0.753C3.75711 0.478203 4.32902 0.28633 4.92 0.184C5.55605 0.0781637 6.19925 0.0209979 6.844 0.013L7.77 0H113.225L114.162 0.013C114.801 0.021 115.438 0.078 116.069 0.183C116.666 0.286575 117.244 0.479756 117.783 0.756C118.853 1.32016 119.719 2.20479 120.261 3.286C120.529 3.83 120.714 4.411 120.811 5.011C120.917 5.663 120.977 6.323 120.989 6.984C120.992 7.281 120.992 7.599 120.992 7.915C121 8.307 121 8.681 121 9.057V30.942C121 31.322 121 31.692 120.992 32.066C120.992 32.406 120.992 32.718 120.988 33.038C120.976 33.6877 120.918 34.3357 120.813 34.977C120.717 35.5837 120.53 36.1724 120.258 36.723C119.989 37.2575 119.637 37.7464 119.216 38.172C118.798 38.6039 118.313 38.9653 117.78 39.242C117.242 39.5194 116.665 39.713 116.069 39.816C115.434 39.922 114.793 39.979 114.151 39.986C113.851 39.994 113.535 39.998 113.23 39.998L112.117 40L7.77 39.998Z" fill="black"/>
<path d="M24.509 19.924C24.52 19.0679 24.7473 18.2284 25.1699 17.4838C25.5925 16.7391 26.1966 16.1134 26.926 15.665C26.4626 15.0033 25.8513 14.4587 25.1406 14.0745C24.4299 13.6904 23.6395 13.4772 22.832 13.452C21.11 13.272 19.44 14.482 18.562 14.482C17.668 14.482 16.317 13.47 14.862 13.5C13.9207 13.5304 13.0034 13.8041 12.1993 14.2945C11.3953 14.7848 10.732 15.4751 10.274 16.298C8.29 19.732 9.77 24.779 11.67 27.555C12.62 28.915 13.732 30.433 15.185 30.379C16.608 30.32 17.139 29.472 18.857 29.472C20.557 29.472 21.057 30.379 22.54 30.345C24.066 30.32 25.028 28.98 25.945 27.608C26.6283 26.6394 27.1541 25.5688 27.503 24.436C26.6162 24.0608 25.8594 23.4329 25.327 22.6306C24.7945 21.8282 24.5101 20.8869 24.509 19.924ZM21.707 11.627C22.5393 10.6278 22.9493 9.3436 22.85 8.047C21.5784 8.18051 20.4037 8.7882 19.56 9.749C19.1476 10.2183 18.8318 10.7643 18.6305 11.3558C18.4292 11.9472 18.3465 12.5725 18.387 13.196C19.0231 13.2025 19.6524 13.0647 20.2275 12.7927C20.8026 12.5207 21.3085 12.1228 21.707 11.627Z" fill="white"/>
<path d="M42.492 26.938H37.637L36.471 30.381H34.415L39.013 17.644H41.149L45.748 30.381H43.656L42.492 26.938ZM38.14 25.35H41.988L40.091 19.763H40.038L38.14 25.35ZM55.679 25.738C55.679 28.624 54.134 30.478 51.803 30.478C51.2127 30.5087 50.6256 30.3726 50.109 30.0852C49.5924 29.7978 49.1672 29.3708 48.882 28.853H48.838V33.453H46.932V21.095H48.777V22.639H48.812C49.1104 22.1239 49.5429 21.6993 50.0634 21.4103C50.5839 21.1214 51.173 20.9789 51.768 20.998C54.125 20.998 55.679 22.861 55.679 25.738ZM53.719 25.738C53.719 23.858 52.748 22.622 51.266 22.622C49.809 22.622 48.83 23.884 48.83 25.738C48.83 27.609 49.81 28.862 51.266 28.862C52.748 28.862 53.719 27.635 53.719 25.738ZM65.899 25.738C65.899 28.624 64.355 30.478 62.024 30.478C61.4335 30.5089 60.8462 30.3729 60.3294 30.0855C59.8127 29.7981 59.3873 29.371 59.102 28.853H59.058V33.453H57.152V21.095H58.997V22.639H59.032C59.3305 22.1237 59.7631 21.699 60.2838 21.4101C60.8045 21.1211 61.3938 20.9787 61.989 20.998C64.346 20.998 65.899 22.861 65.899 25.738ZM63.939 25.738C63.939 23.858 62.969 22.622 61.486 22.622C60.03 22.622 59.05 23.884 59.05 25.738C59.05 27.609 60.03 28.862 61.486 28.862C62.968 28.862 63.939 27.635 63.939 25.738ZM72.654 26.832C72.795 28.095 74.022 28.924 75.699 28.924C77.305 28.924 78.461 28.094 78.461 26.956C78.461 25.967 77.764 25.376 76.113 24.97L74.463 24.572C72.124 24.007 71.038 22.914 71.038 21.139C71.038 18.941 72.953 17.432 75.673 17.432C78.363 17.432 80.209 18.942 80.271 21.139H78.347C78.232 19.868 77.181 19.101 75.646 19.101C74.11 19.101 73.059 19.877 73.059 21.007C73.059 21.907 73.731 22.437 75.372 22.842L76.775 23.187C79.389 23.805 80.475 24.855 80.475 26.717C80.475 29.1 78.576 30.593 75.557 30.593C72.733 30.593 70.826 29.136 70.703 26.832H72.654ZM84.588 18.897V21.095H86.354V22.605H84.588V27.723C84.588 28.519 84.941 28.889 85.718 28.889C85.928 28.886 86.137 28.871 86.345 28.845V30.345C85.9959 30.4105 85.6411 30.4403 85.286 30.434C83.406 30.434 82.673 29.728 82.673 27.927V22.604H81.323V21.094H82.673V18.897H84.588ZM87.376 25.738C87.376 22.817 89.097 20.981 91.78 20.981C94.473 20.981 96.185 22.816 96.185 25.738C96.185 28.668 94.482 30.496 91.78 30.496C89.08 30.496 87.376 28.668 87.376 25.738ZM94.243 25.738C94.243 23.734 93.325 22.551 91.78 22.551C90.236 22.551 89.319 23.743 89.319 25.738C89.319 27.75 90.236 28.924 91.78 28.924C93.325 28.924 94.243 27.75 94.243 25.738ZM97.757 21.095H99.575V22.675H99.619C99.7422 22.1815 100.032 21.7453 100.438 21.44C100.845 21.1346 101.345 20.9785 101.853 20.998C102.073 20.997 102.291 21.021 102.506 21.068V22.852C102.229 22.7669 101.939 22.7278 101.649 22.736C101.372 22.7247 101.096 22.7735 100.84 22.879C100.583 22.9845 100.353 23.1443 100.164 23.3474C99.9754 23.5504 99.8329 23.7919 99.7464 24.0553C99.6599 24.3186 99.6314 24.5976 99.663 24.873V30.381H97.757V21.095ZM111.294 27.653C111.037 29.339 109.396 30.496 107.295 30.496C104.594 30.496 102.917 28.686 102.917 25.782C102.917 22.87 104.603 20.981 107.215 20.981C109.785 20.981 111.4 22.745 111.4 25.561V26.214H104.841V26.329C104.811 26.6708 104.853 27.015 104.966 27.339C105.079 27.6629 105.26 27.9591 105.496 28.2079C105.733 28.4566 106.019 28.6523 106.337 28.7818C106.655 28.9113 106.996 28.9717 107.339 28.959C107.79 29.0015 108.242 28.8973 108.628 28.662C109.015 28.4266 109.315 28.0727 109.484 27.653H111.294ZM104.85 24.882H109.493C109.51 24.5747 109.464 24.2671 109.356 23.9786C109.249 23.6902 109.083 23.427 108.869 23.2057C108.655 22.9843 108.398 22.8096 108.113 22.6925C107.829 22.5753 107.523 22.5183 107.215 22.525C106.905 22.523 106.597 22.5826 106.309 22.7002C106.022 22.8179 105.761 22.9913 105.541 23.2104C105.321 23.4296 105.147 23.6902 105.028 23.9771C104.91 24.264 104.849 24.5715 104.85 24.882Z" fill="white"/>
<path d="M36.785 10.6449H37.603C37.7439 10.6625 37.8869 10.6506 38.023 10.6101C38.1591 10.5697 38.2854 10.5014 38.3938 10.4097C38.5022 10.318 38.5904 10.2049 38.653 10.0774C38.7155 9.94987 38.7509 9.81081 38.757 9.66894C38.757 9.10494 38.332 8.73994 37.612 8.73994C37.4676 8.71966 37.3206 8.72854 37.1798 8.76607C37.0389 8.80359 36.9069 8.869 36.7918 8.95842C36.6766 9.04784 36.5806 9.15945 36.5093 9.28665C36.4381 9.41384 36.3931 9.55404 36.377 9.69894H35.479C35.4945 9.43613 35.5639 9.17932 35.683 8.94449C35.802 8.70966 35.9681 8.50183 36.1708 8.33394C36.3736 8.16604 36.6088 8.04167 36.8617 7.96855C37.1146 7.89544 37.3799 7.87515 37.641 7.90894C38.846 7.90894 39.695 8.58294 39.695 9.55394C39.6978 9.8793 39.5889 10.1958 39.3865 10.4506C39.1842 10.7053 38.9005 10.883 38.583 10.9539V11.0259C38.9594 11.0426 39.314 11.2076 39.569 11.485C39.8241 11.7623 39.9589 12.1294 39.944 12.5059C39.9162 12.7767 39.8347 13.0392 39.7042 13.278C39.5736 13.5168 39.3967 13.7272 39.1838 13.8967C38.9708 14.0662 38.7262 14.1915 38.4642 14.2652C38.2022 14.3389 37.9281 14.3596 37.658 14.3259C37.3874 14.3628 37.1123 14.3447 36.8488 14.2729C36.5854 14.2012 36.3391 14.0771 36.1247 13.9081C35.9103 13.7391 35.732 13.5286 35.6007 13.2893C35.4693 13.0499 35.3874 12.7866 35.36 12.5149H36.272C36.327 13.0999 36.865 13.4779 37.658 13.4779C38.452 13.4779 38.969 13.0529 38.969 12.4549C38.969 11.8489 38.482 11.4749 37.629 11.4749H36.785V10.6449ZM40.98 12.8709C40.98 12.0399 41.6 11.5609 42.698 11.4919L43.949 11.4199V11.0219C43.949 10.5339 43.628 10.2579 43.004 10.2579C42.495 10.2579 42.144 10.4449 42.041 10.7719H41.159C41.252 9.97794 41.999 9.46994 43.047 9.46994C44.205 9.46994 44.857 10.0459 44.857 11.0219V14.1769H43.979V13.5279H43.907C43.7606 13.7607 43.5551 13.9504 43.3114 14.0778C43.0677 14.2052 42.7946 14.2656 42.52 14.2529C42.3261 14.2732 42.1301 14.2526 41.9446 14.1925C41.7592 14.1323 41.5884 14.034 41.4433 13.9037C41.2982 13.7735 41.182 13.6143 41.1022 13.4364C41.0224 13.2586 40.9807 13.0659 40.98 12.8709ZM43.95 12.4759V12.0899L42.822 12.1619C42.186 12.2049 41.897 12.4219 41.897 12.8289C41.897 13.2439 42.257 13.4859 42.753 13.4859C42.8983 13.5006 43.0451 13.4859 43.1846 13.4427C43.3241 13.3995 43.4535 13.3287 43.5651 13.2345C43.6767 13.1402 43.7682 13.0245 43.8341 12.8942C43.9001 12.7639 43.9401 12.6217 43.95 12.4759ZM47.277 10.3259V14.1769H46.365V9.55994H49.406V10.3269L47.277 10.3259ZM54.93 11.8659C54.93 13.3329 54.188 14.2529 53.022 14.2529C52.7359 14.2726 52.4502 14.21 52.1984 14.0727C51.9467 13.9354 51.7394 13.7291 51.601 13.4779H51.529V15.7129H50.617V9.55894H51.494V10.3219H51.563C51.85 9.79194 52.41 9.46694 53.013 9.48194C54.188 9.48194 54.93 10.3979 54.93 11.8659ZM53.992 11.8659C53.992 10.8899 53.531 10.3009 52.758 10.3009C51.991 10.3009 51.511 10.9029 51.511 11.8699C51.511 12.8329 51.991 13.4349 52.754 13.4349C53.531 13.4349 53.992 12.8449 53.992 11.8659ZM56.144 15.8309V15.0469C56.243 15.0589 56.342 15.0649 56.441 15.0639C56.6354 15.0785 56.8282 15.0207 56.9826 14.9016C57.1369 14.7826 57.2418 14.6106 57.277 14.4189L57.345 14.1939L55.673 9.55894H56.666L57.824 13.2269H57.896L59.05 9.55994H60.016L58.294 14.3689C57.9 15.4929 57.463 15.8529 56.522 15.8529C56.445 15.8529 56.229 15.8449 56.144 15.8329V15.8309ZM60.726 12.8669H61.634C61.723 13.2739 62.104 13.4869 62.638 13.4869C63.245 13.4869 63.618 13.2189 63.618 12.8029C63.618 12.3579 63.283 12.1449 62.638 12.1449H61.948V11.4369H62.626C63.177 11.4369 63.458 11.2249 63.458 10.8389C63.458 10.4999 63.186 10.2409 62.626 10.2409C62.116 10.2409 61.744 10.4579 61.685 10.8219H60.806C60.8717 10.4031 61.0992 10.0267 61.4396 9.77386C61.78 9.52102 62.206 9.41189 62.626 9.46994C63.724 9.46994 64.352 9.96594 64.352 10.7459C64.3572 10.9634 64.2875 11.176 64.1546 11.3483C64.0217 11.5205 63.8337 11.6418 63.622 11.6919V11.7639C64.144 11.8309 64.532 12.2779 64.526 12.8029C64.526 13.6809 63.779 14.2619 62.638 14.2619C61.63 14.2619 60.81 13.7999 60.726 12.8669ZM65.839 14.1769V9.55994H66.742V12.7359H66.814L68.943 9.55994H69.846V14.1779H68.943V10.9849H68.875L66.742 14.1779L65.839 14.1769ZM74.823 10.3259H73.37V14.1769H72.457V10.3259H71.003V9.55894H74.824L74.823 10.3259ZM79.733 12.9299C79.6087 13.3519 79.3402 13.7169 78.9743 13.9611C78.6084 14.2052 78.1684 14.3132 77.731 14.2659C77.4268 14.2739 77.1246 14.2155 76.8453 14.095C76.5659 13.9744 76.3161 13.7946 76.1132 13.5679C75.9103 13.3412 75.7591 13.0731 75.6701 12.7821C75.5812 12.4912 75.5566 12.1844 75.598 11.8829C75.5574 11.5805 75.5823 11.2729 75.671 10.9809C75.7597 10.689 75.91 10.4195 76.1119 10.1907C76.3138 9.96185 76.5625 9.77909 76.8411 9.65475C77.1198 9.5304 77.4219 9.46738 77.727 9.46994C79.012 9.46994 79.788 10.3479 79.788 11.7979V12.1159H76.527V12.1669C76.5126 12.3364 76.5338 12.5071 76.5893 12.6679C76.6448 12.8287 76.7333 12.9761 76.8491 13.1007C76.965 13.2253 77.1056 13.3243 77.2619 13.3913C77.4183 13.4584 77.5869 13.4919 77.757 13.4899C78.203 13.5429 78.637 13.3219 78.855 12.9299H79.733ZM76.527 11.4419H78.859C78.8706 11.287 78.8497 11.1312 78.7975 10.9848C78.7453 10.8384 78.6631 10.7045 78.5561 10.5918C78.4491 10.4791 78.3197 10.39 78.1763 10.3302C78.0328 10.2705 77.8784 10.2414 77.723 10.2449C77.5652 10.2428 77.4087 10.2723 77.2625 10.3317C77.1164 10.3911 76.9836 10.4792 76.8721 10.5908C76.7606 10.7024 76.6726 10.8352 76.6133 10.9814C76.5541 11.1276 76.5247 11.2842 76.527 11.4419ZM83.597 9.55894H85.68C86.583 9.55894 87.113 10.0169 87.113 10.7329C87.1146 10.9604 87.0379 11.1815 86.8959 11.3592C86.7539 11.5369 86.5552 11.6603 86.333 11.7089V11.7809C86.893 11.8159 87.327 12.2839 87.32 12.8459C87.32 13.6509 86.714 14.1769 85.7 14.1769H83.597V9.55994V9.55894ZM84.501 10.2589V11.4539H85.404C85.955 11.4539 86.219 11.2419 86.219 10.8519C86.219 10.4919 85.989 10.2579 85.505 10.2579L84.501 10.2589ZM84.501 12.1239V13.4779H85.581C86.121 13.4779 86.409 13.2399 86.409 12.8029C86.409 12.3409 86.082 12.1239 85.467 12.1239H84.501Z" fill="white"/>
</g>
<defs>
<clipPath id="clip0_31_19">
<rect width="121" height="40" fill="white"/>
</clipPath>
</defs>
</svg>
