<svg width="135" height="40" viewBox="0 0 135 40" fill="none" xmlns="http://www.w3.org/2000/svg">
<g clip-path="url(#clip0_31_4)">
<path d="M130 40H5C2.25 40 0 37.75 0 35V5C0 2.25 2.25 0 5 0H130C132.75 0 135 2.25 135 5V35C135 37.75 132.75 40 130 40Z" fill="black"/>
<path d="M68.14 21.75C65.79 21.75 63.87 23.54 63.87 26C63.87 28.45 65.79 30.25 68.14 30.25C70.49 30.25 72.41 28.45 72.41 26C72.41 23.54 70.49 21.75 68.14 21.75ZM68.14 28.58C66.85 28.58 65.74 27.5201 65.74 26C65.74 24.47 66.85 23.42 68.14 23.42C69.43 23.42 70.54 24.47 70.54 26C70.54 27.5201 69.42 28.58 68.14 28.58ZM58.82 21.75C56.47 21.75 54.55 23.54 54.55 26C54.55 28.45 56.47 30.25 58.82 30.25C61.17 30.25 63.09 28.45 63.09 26C63.09 23.54 61.17 21.75 58.82 21.75ZM58.82 28.58C57.53 28.58 56.42 27.5201 56.42 26C56.42 24.47 57.53 23.42 58.82 23.42C60.11 23.42 61.22 24.47 61.22 26C61.22 27.5201 60.11 28.58 58.82 28.58ZM47.74 23.06V24.8601H52.06C51.93 25.8701 51.59 26.62 51.08 27.13C50.45 27.76 49.47 28.4501 47.75 28.4501C45.09 28.4501 43.01 26.31 43.01 23.65C43.01 20.99 45.09 18.85 47.75 18.85C49.18 18.85 50.23 19.41 51 20.14L52.27 18.8701C51.19 17.8401 49.76 17.05 47.74 17.05C44.1 17.05 41.04 20.01 41.04 23.66C41.04 27.3 44.1 30.2701 47.74 30.2701C49.71 30.2701 51.19 29.63 52.35 28.42C53.54 27.23 53.91 25.5501 53.91 24.2001C53.91 23.7801 53.88 23.39 53.81 23.07H47.74V23.06ZM93.05 24.46C92.7 23.51 91.62 21.75 89.41 21.75C87.22 21.75 85.4 23.47 85.4 26C85.4 28.38 87.2 30.25 89.62 30.25C91.57 30.25 92.7 29.0601 93.16 28.3701L91.71 27.4C91.23 28.11 90.57 28.58 89.62 28.58C88.67 28.58 87.99 28.1401 87.56 27.2901L93.25 24.9401L93.05 24.46ZM87.25 25.88C87.2 24.24 88.52 23.4 89.47 23.4C90.21 23.4 90.84 23.77 91.05 24.3L87.25 25.88ZM82.63 30H84.5V17.5H82.63V30ZM79.57 22.7001H79.5C79.08 22.2001 78.28 21.75 77.26 21.75C75.13 21.75 73.18 23.62 73.18 26.0201C73.18 28.4001 75.13 30.26 77.26 30.26C78.27 30.26 79.08 29.8101 79.5 29.2901H79.56V29.9C79.56 31.53 78.69 32.4001 77.29 32.4001C76.15 32.4001 75.44 31.58 75.15 30.89L73.52 31.57C73.99 32.7 75.23 34.0801 77.29 34.0801C79.48 34.0801 81.33 32.79 81.33 29.65V22.01H79.56V22.7001H79.57ZM77.42 28.58C76.13 28.58 75.05 27.5 75.05 26.0201C75.05 24.5201 76.13 23.43 77.42 23.43C78.69 23.43 79.69 24.5301 79.69 26.0201C79.7 27.5 78.7 28.58 77.42 28.58ZM101.81 17.5H97.34V30H99.21V25.26H101.82C103.89 25.26 105.92 23.76 105.92 21.38C105.92 19 103.87 17.5 101.81 17.5ZM101.85 23.5201H99.2V19.23H101.85C103.25 19.23 104.04 20.3901 104.04 21.3701C104.04 22.3501 103.25 23.5201 101.85 23.5201ZM113.39 21.73C112.04 21.73 110.64 22.33 110.06 23.64L111.72 24.33C112.07 23.64 112.73 23.41 113.42 23.41C114.38 23.41 115.37 23.9901 115.38 25.0201V25.15C115.04 24.96 114.32 24.67 113.43 24.67C111.64 24.67 109.83 25.65 109.83 27.48C109.83 29.15 111.29 30.23 112.93 30.23C114.18 30.23 114.88 29.67 115.31 29.01H115.37V29.98H117.17V25.1901C117.18 22.97 115.52 21.73 113.39 21.73ZM113.16 28.58C112.55 28.58 111.7 28.2701 111.7 27.5201C111.7 26.5601 112.76 26.1901 113.68 26.1901C114.5 26.1901 114.89 26.3701 115.38 26.6101C115.311 27.1513 115.048 27.6491 114.639 28.0113C114.231 28.3735 113.706 28.5755 113.16 28.58ZM123.74 22L121.6 27.42H121.54L119.32 22H117.31L120.64 29.58L118.74 33.7901H120.69L125.82 22H123.74ZM106.94 30H108.81V17.5H106.94V30Z" fill="white"/>
<path d="M10.44 7.53997C10.15 7.84997 9.98001 8.32997 9.98001 8.93997V31.06C9.98001 31.68 10.15 32.16 10.44 32.46L10.51 32.53L22.9 20.15V19.85L10.51 7.46997L10.44 7.53997Z" fill="url(#paint0_linear_31_4)"/>
<path d="M27.03 24.28L22.9 20.15V19.85L27.03 15.72L27.12 15.77L32.01 18.55C33.41 19.34 33.41 20.64 32.01 21.44L27.12 24.22L27.03 24.28Z" fill="url(#paint1_linear_31_4)"/>
<path d="M27.12 24.22L22.9 20L10.44 32.46C10.9 32.95 11.66 33.01 12.52 32.52L27.12 24.22Z" fill="url(#paint2_linear_31_4)"/>
<path d="M27.12 15.78L12.51 7.47999C11.65 6.98999 10.89 7.04999 10.43 7.53999L22.9 20L27.12 15.78Z" fill="url(#paint3_linear_31_4)"/>
<path opacity="0.2" d="M27.03 24.13L12.51 32.38C11.7 32.84 10.97 32.81 10.51 32.39L10.44 32.46L10.51 32.53C10.98 32.95 11.7 32.98 12.51 32.52L27.12 24.22L27.03 24.13Z" fill="black"/>
<path opacity="0.12" d="M10.44 32.32C10.15 32.01 9.98001 31.53 9.98001 30.92V31.07C9.98001 31.69 10.15 32.17 10.44 32.47L10.51 32.4L10.44 32.32Z" fill="black"/>
<path opacity="0.12" d="M32.01 21.3L27.02 24.13L27.11 24.22L32 21.44C32.7 21.04 33.05 20.52 33.05 20C33 20.47 32.65 20.94 32.01 21.3Z" fill="black"/>
<path opacity="0.25" d="M12.51 7.62006L32.01 18.7001C32.64 19.0601 33 19.5201 33.06 20.0001C33.06 19.4801 32.71 18.9501 32.01 18.5601L12.51 7.48006C11.11 6.69006 9.97 7.35006 9.97 8.95006V9.10006C9.97 7.49006 11.12 6.83006 12.51 7.62006Z" fill="white"/>
<path d="M42.11 14.27H41.37V12.26H41.96C42.48 11.81 42.73 11.05 42.72 9.95998V6.99998H46.73V12.26H47.4V14.27H46.66V13H42.11V14.27ZM43.5 9.96998C43.51 10.92 43.32 11.68 42.93 12.27H45.96V7.73998H43.5V9.96998ZM53.41 12.22C52.82 12.83 52.09 13.13 51.21 13.13C50.33 13.13 49.6 12.83 49.01 12.22C48.42 11.61 48.13 10.87 48.13 9.99998C48.13 9.12998 48.42 8.37998 49.01 7.77998C49.6 7.16998 50.33 6.86998 51.21 6.86998C52.08 6.86998 52.81 7.16998 53.41 7.77998C54 8.38998 54.3 9.12998 54.3 9.99998C54.3 10.88 54 11.62 53.41 12.22ZM49.58 11.72C50.02 12.17 50.57 12.39 51.21 12.39C51.85 12.39 52.4 12.17 52.84 11.72C53.28 11.27 53.51 10.7 53.51 9.99998C53.51 9.29998 53.29 8.72998 52.84 8.27998C52.4 7.82998 51.85 7.60998 51.21 7.60998C50.57 7.60998 50.02 7.82998 49.58 8.27998C49.14 8.72998 48.91 9.29998 48.91 9.99998C48.91 10.7 49.14 11.27 49.58 11.72ZM58.18 13.13C57.3 13.13 56.56 12.83 55.96 12.23C55.36 11.63 55.06 10.89 55.06 9.98998C55.06 9.08998 55.36 8.34998 55.96 7.74998C56.56 7.14998 57.3 6.84998 58.18 6.84998C59.08 6.84998 59.82 7.17998 60.38 7.82998L59.84 8.34998C59.43 7.83998 58.88 7.58998 58.17 7.58998C57.52 7.58998 56.96 7.80998 56.51 8.24998C56.06 8.68998 55.84 9.26998 55.84 9.97998C55.84 10.69 56.06 11.27 56.51 11.71C56.96 12.15 57.51 12.37 58.17 12.37C58.89 12.37 59.5 12.08 60.01 11.5L60.55 12.04C60.28 12.37 59.93 12.63 59.52 12.82C59.11 13.04 58.66 13.13 58.18 13.13ZM63.68 13H62.91V7.73998H61.23V6.99998H65.35V7.73998H63.67V13H63.68ZM70.65 6.99998L68.38 12.06C68.07 12.77 67.6 13.13 66.98 13.13C66.8 13.13 66.6 13.09 66.38 13L66.58 12.29C66.71 12.36 66.84 12.4 66.98 12.4C67.16 12.4 67.3 12.37 67.4 12.3C67.5 12.23 67.59 12.1 67.67 11.92L67.89 11.44L65.87 6.99998H66.78L68.26 10.44H68.29L69.74 6.99998H70.65ZM71.52 13V6.99998H75.86V13H75.09V7.73998H72.29V13H71.52ZM77.23 13V6.99998H78V9.56998H81V6.99998H81.77V13H81V10.29H78V13H77.23ZM88.06 12.22C87.47 12.83 86.74 13.13 85.86 13.13C84.98 13.13 84.25 12.83 83.66 12.22C83.07 11.61 82.78 10.87 82.78 9.99998C82.78 9.12998 83.07 8.37998 83.66 7.77998C84.25 7.16998 84.98 6.86998 85.86 6.86998C86.73 6.86998 87.46 7.16998 88.06 7.77998C88.65 8.38998 88.95 9.12998 88.95 9.99998C88.94 10.88 88.65 11.62 88.06 12.22ZM84.23 11.72C84.67 12.17 85.22 12.39 85.86 12.39C86.5 12.39 87.05 12.17 87.49 11.72C87.93 11.27 88.16 10.7 88.16 9.99998C88.16 9.29998 87.94 8.72998 87.49 8.27998C87.05 7.82998 86.5 7.60998 85.86 7.60998C85.22 7.60998 84.67 7.82998 84.23 8.27998C83.79 8.72998 83.56 9.29998 83.56 9.99998C83.56 10.7 83.78 11.27 84.23 11.72ZM92.09 13V6.99998H94.26C94.73 6.99998 95.14 7.15998 95.48 7.45998C95.82 7.76998 96 8.15998 96 8.62998C96 8.91998 95.93 9.16998 95.78 9.37998C95.63 9.59998 95.44 9.75998 95.19 9.86998V9.89998C95.49 9.99998 95.73 10.17 95.92 10.42C96.11 10.67 96.21 10.95 96.21 11.28C96.21 11.77 96.03 12.18 95.67 12.5C95.31 12.82 94.88 12.99 94.39 12.99H92.09V13ZM92.86 9.56998H94.26C94.55 9.56998 94.78 9.46998 94.96 9.27998C95.14 9.08998 95.22 8.87998 95.22 8.64998C95.22 8.41998 95.14 8.20998 94.96 8.01998C94.8766 7.92518 94.7733 7.85001 94.6575 7.79987C94.5417 7.74973 94.4162 7.72586 94.29 7.72998H92.86V9.56998ZM92.86 12.26H94.41C94.71 12.26 94.95 12.16 95.13 11.95C95.31 11.74 95.41 11.52 95.41 11.27C95.4105 11.1443 95.385 11.0199 95.3351 10.9046C95.2852 10.7893 95.212 10.6856 95.12 10.6C95.0238 10.4985 94.9073 10.4184 94.7781 10.3649C94.6488 10.3115 94.5098 10.286 94.37 10.29H92.85V12.26H92.86Z" fill="white" stroke="white" stroke-width="0.2"/>
</g>
<defs>
<linearGradient id="paint0_linear_31_4" x1="798.449" y1="131.442" x2="-263.719" y2="1193.6" gradientUnits="userSpaceOnUse">
<stop stop-color="#00A0FF"/>
<stop offset="0.00657" stop-color="#00A1FF"/>
<stop offset="0.2601" stop-color="#00BEFF"/>
<stop offset="0.5122" stop-color="#00D2FF"/>
<stop offset="0.7604" stop-color="#00DFFF"/>
<stop offset="1" stop-color="#00E3FF"/>
</linearGradient>
<linearGradient id="paint1_linear_31_4" x1="1116.34" y1="443.857" x2="-1303.35" y2="443.857" gradientUnits="userSpaceOnUse">
<stop stop-color="#FFE000"/>
<stop offset="0.4087" stop-color="#FFBD00"/>
<stop offset="0.7754" stop-color="#FFA500"/>
<stop offset="1" stop-color="#FF9C00"/>
</linearGradient>
<linearGradient id="paint2_linear_31_4" x1="1449.14" y1="417.301" x2="-365.057" y2="2231.49" gradientUnits="userSpaceOnUse">
<stop stop-color="#FF3A44"/>
<stop offset="1" stop-color="#C31162"/>
</linearGradient>
<linearGradient id="paint3_linear_31_4" x1="-302.841" y1="-145.005" x2="506.909" y2="664.747" gradientUnits="userSpaceOnUse">
<stop stop-color="#32A071"/>
<stop offset="0.0685" stop-color="#2DA771"/>
<stop offset="0.4762" stop-color="#15CF74"/>
<stop offset="0.8009" stop-color="#06E775"/>
<stop offset="1" stop-color="#00F076"/>
</linearGradient>
<clipPath id="clip0_31_4">
<rect width="135" height="40" fill="white"/>
</clipPath>
</defs>
</svg>
